<svg xmlns="http://www.w3.org/2000/svg" version="1.1" xmlns:xlink="http://www.w3.org/1999/xlink" xmlns:svgjs="http://svgjs.com/svgjs" width="512" height="512" x="0" y="0" viewBox="0 0 64 64" style="enable-background:new 0 0 512 512" xml:space="preserve" class=""><g><g><path d="m53.049 16.135-11.684-11.684c-.936-.935-2.18-1.451-3.503-1.451h-23.02c-1.428 0-2.77.556-3.776 1.564-1.01 1.009-1.566 2.35-1.566 3.778v47.316c0 1.427.556 2.769 1.564 3.777s2.351 1.565 3.778 1.565h34.316c2.945 0 5.342-2.396 5.342-5.342v-36.02c0-1.325-.516-2.569-1.451-3.503zm-12.549-9.721 10.586 10.586h-8.153c-.64 0-1.267-.26-1.72-.712-.459-.46-.713-1.071-.713-1.721zm12 49.244c0 1.843-1.499 3.342-3.342 3.342h-34.316c-.893 0-1.732-.348-2.363-.979-.631-.632-.979-1.471-.979-2.363v-47.316c0-.88.357-1.74.979-2.363.631-.631 1.47-.979 2.363-.979h23.021c.218 0 .43.028.638.074v9.493c0 1.183.461 2.296 1.299 3.136.837.836 1.95 1.297 3.133 1.297h9.493c.046.208.074.42.074.638z" fill="#bb0b0b" data-original="#000000" class=""></path><path d="m19.5 18h12.5c.552 0 1-.447 1-1s-.448-1-1-1h-12.5c-.552 0-1 .447-1 1s.448 1 1 1z" fill="#bb0b0b" data-original="#000000" class=""></path><path d="m44 24.5h-24.5c-.552 0-1 .447-1 1s.448 1 1 1h24.5c.552 0 1-.447 1-1s-.448-1-1-1z" fill="#bb0b0b" data-original="#000000" class=""></path><path d="m44 33h-24.5c-.552 0-1 .447-1 1s.448 1 1 1h24.5c.552 0 1-.447 1-1s-.448-1-1-1z" fill="#bb0b0b" data-original="#000000" class=""></path><path d="m44 41.5h-24.5c-.552 0-1 .447-1 1s.448 1 1 1h24.5c.552 0 1-.447 1-1s-.448-1-1-1z" fill="#bb0b0b" data-original="#000000" class=""></path><path d="m44 50h-24.5c-.552 0-1 .447-1 1s.448 1 1 1h24.5c.552 0 1-.447 1-1s-.448-1-1-1z" fill="#bb0b0b" data-original="#000000" class=""></path></g></g></svg>